<?xml version="1.0" encoding="utf-8" ?><svg xmlns="http://www.w3.org/2000/svg" xmlns:xlink="http://www.w3.org/1999/xlink" width="1024" height="1024" viewBox="0 0 1024 1024"><path fill="#E9E9E8" d="M0 0L1024 0L1024 1024L0 1024L0 0Z"/><path fill="#0A3959" d="M288.772 426.181C298.394 425.166 308.123 426.3 317.253 429.503C334.427 435.641 342.627 446.006 350.131 461.85C353.558 460.248 361.189 455.66 364.074 458.946C364.993 463.181 356.372 489.681 352.98 491.58C348.459 490.393 328.235 478.128 324.256 473.58C323.863 473.13 324.173 472.599 324.346 471.861C326.877 468.878 331.982 467.694 335.849 466.391C327.073 444.678 305.489 437.49 283.682 441.829C282.627 442.127 281.577 442.447 280.534 442.786C272.687 445.361 265.49 450.213 261.805 457.833C259.061 463.577 258.798 470.196 261.078 476.139C266.003 488.833 282.264 495.081 293.783 500.129C292.085 504.725 290.204 509.251 288.146 513.697C279.023 509.838 269.35 505.591 261.452 499.685C243.85 486.523 239.088 461.914 253.161 444.333C262.323 432.886 274.613 427.997 288.772 426.181Z"/><path fill="#296BF3" d="M311.547 508.187C328.861 515.776 350.231 527.289 353.974 547.821C360.453 583.352 320.725 602.457 290.528 594.739C268.781 589.18 260.623 579.28 249.334 561.167C234.745 567.647 232.367 567.001 236.818 551.375C238.71 544.497 240.501 536.251 243.959 530.124C249.212 532.011 272.649 543.872 273.496 548.876C271.765 551.335 265.545 553.386 262.498 554.609C267.017 564.141 273.425 571.601 282.895 576.456C294.259 582.196 307.431 583.213 319.541 579.284C333.091 574.815 344.542 562.171 338.682 547.163C333.338 533.477 318.184 527.68 305.799 522.111C307.65 517.435 309.447 512.758 311.547 508.187Z"/><path fill="#296BF3" d="M720.66 503.282C721.47 502.321 722.303 501.38 723.158 500.46C729.603 493.628 742.11 492.377 748.133 499.214C756.131 508.294 753.524 534.044 753.482 545.536L740.429 545.448C740.443 537.419 741.732 512.619 737.174 509.347C718.989 496.29 722.46 535.386 722.486 539.25L722.483 545.611C718.077 545.594 713.672 545.547 709.267 545.471C709 539.46 710.475 511.71 706.214 508.936C687.946 497.043 691.563 536.64 691.577 545.512L678.426 545.451C678.21 528.979 678.164 512.506 678.288 496.034C682.567 495.985 686.847 495.973 691.127 495.998C691.364 497.983 691.39 500.523 691.469 502.562C696.092 497.018 698.821 495.579 705.767 494.677C706.928 494.77 708.086 494.898 709.239 495.059C714.783 495.886 717.599 499.131 720.66 503.282Z"/><path fill="#296BF3" d="M785.271 494.603C806.16 493.039 812.858 506.885 813.134 525.013L776.406 524.964C781.516 538.106 791.901 539.279 801.423 529.385C802.339 530.027 803.704 530.749 804.706 531.324L811.076 534.767C802.648 546.667 788.069 550.483 775.136 543.21C757.839 533.482 759.02 504.802 777.369 496.831C780.181 495.61 782.306 495.155 785.271 494.603Z"/><path fill="#E9E9E8" d="M786.199 505.59C794.895 504.845 798.223 508.503 800.338 516.312L790.505 516.376C787.24 516.423 783.975 516.438 780.709 516.42C779.152 516.396 777.762 516.279 776.647 515.145C776.328 511.045 782.729 506.829 786.199 505.59Z"/><path fill="#0A3959" d="M441.417 475.992L455.219 475.866C455.288 489.141 455.279 502.417 455.192 515.692L473.68 495.752C479.087 495.504 485.422 495.579 490.883 495.526C484.39 502.103 477.952 508.736 471.572 515.423C475.308 521.543 479.275 527.42 483.253 533.383L491.113 545.515L474.973 545.512L462.175 524.712C459.286 527.763 457.556 529.699 455.029 533.03L454.979 545.528L441.399 545.499C441.81 522.764 441.516 498.783 441.417 475.992Z"/><path fill="#0A3959" d="M554.245 494.645C579.571 492.858 579.599 508.938 579.578 528.383L579.532 545.412L566.553 545.396L566.505 538.653C557.467 547.133 545.085 551.162 536.206 539.982C531.006 531.621 532.772 522.935 541.788 518.79C548.52 515.201 558.236 516.392 564.871 514.556C567.097 513.94 564.302 505.158 557.199 505.789C549.79 506.447 548.831 507.687 543.405 512.295C540.651 509.96 537.938 507.576 535.268 505.146C540.368 498.142 546.111 495.863 554.245 494.645Z"/><path fill="#E9E9E8" d="M559.157 523.675C561.197 523.394 562.297 523.064 564.245 523.553C565.02 524.207 565.952 524.959 565.864 526.056C565.285 533.255 559.395 535.745 554.089 536.711C550.216 535.964 544.12 533.325 547.947 528.453C551.01 524.554 554.634 524.264 559.157 523.675Z"/><path fill="#0A3959" d="M407.18 494.606C417.061 494.277 423.38 495.619 431.103 502.154C428.73 505.192 426.651 507.882 424.048 510.72C419.485 507.293 405.898 501.082 403.735 509.332C405.615 514.74 420.962 515.436 426.855 520.418C435.123 527.408 433.5 535.775 425.632 542.692C422.487 545.456 416.652 546.321 412.279 546.613C402.36 546.594 395.976 544.559 388.188 538.256L394.899 529.476C400.48 533.305 413.341 540.58 418.412 532.71C418.826 528.216 411.737 526.467 408.208 525.944C385.407 522.56 382.924 499.747 407.18 494.606Z"/><path fill="#0A3959" d="M594.98 481.416C599.23 481.308 603.813 481.402 608.09 481.408C608.386 485.988 608.214 491.307 608.173 495.949L620.023 495.984L620.096 507.455L608.022 507.502C607.964 513.68 606.416 530.419 611.248 533.917C613.241 534.355 616.032 533.583 618.136 533.176C619.562 535.038 621.286 539.995 622.222 542.393C618.974 545.968 613.307 546.513 608.746 546.496C590.782 546.431 594.638 519.811 594.759 507.429C592.066 507.492 589.195 507.399 586.488 507.359L586.482 495.999C589.298 495.846 592.115 495.72 594.933 495.62L594.98 481.416Z"/><path fill="#0A3959" d="M525.589 494.585L527.483 494.686C529.332 496.891 528.708 504.091 528.725 507.406C506.502 510.181 511.404 527.68 511.492 545.497C508.316 545.462 500.989 546.226 498.459 544.812C497.931 544.517 498.077 542.966 498.041 542.125L498.009 495.658L511.492 495.624L511.474 504.583C515.877 498.374 518.132 496.137 525.589 494.585Z"/><path fill="#0A3959" d="M630.565 495.991L644.238 495.802C644.667 511.466 644.253 528.973 644.257 544.828C642.693 546.045 633.142 545.513 630.531 545.479L630.565 495.991Z"/><path fill="#296BF3" d="M654.532 531.395C658.797 531.526 663.696 531.41 668.013 531.413L668.099 545.49L654.479 545.448L654.532 531.395Z"/><path fill="#0A3959" d="M630.078 475.446L644.286 475.362L644.204 488.373C640.274 488.639 634.215 488.471 630.121 488.491L630.078 475.446Z"/><path fill="#E9E9E8" d="M612.765 527.976C614.503 527.928 615.105 527.792 616.745 528.44C617.148 529.939 617.155 529.162 616.351 530.819C614.883 530.562 612.823 530.491 612.027 529.284L612.765 527.976Z"/></svg>